<svg width="868" height="768" viewBox="0 0 868 768" fill="none" xmlns="http://www.w3.org/2000/svg">
<rect width="868" height="768" fill="white"/>
<path d="M728 333.5C728 507.194 588.761 648 417 648C245.239 648 106 507.194 106 333.5C106 159.806 245.239 19 417 19C588.761 19 728 159.806 728 333.5Z" fill="#1B1D27"/>
<rect x="317" y="287.637" width="16" height="250" transform="rotate(-32.6694 317 287.637)" fill="#7561F7"/>
<rect x="387" y="164.096" width="16" height="111.9" transform="rotate(-54.9322 387 164.096)" fill="#7561F7"/>
<rect x="368.613" y="162.726" width="16" height="111.9" transform="rotate(38.0956 368.613 162.726)" fill="#7561F7"/>
<rect x="493.068" y="248" width="16" height="250" transform="rotate(0.0156755 493.068 248)" fill="#7561F7"/>
<ellipse cx="374.5" cy="150.5" rx="56.5" ry="53.5" fill="#FF7AFE"/>
<ellipse cx="294.5" cy="239.5" rx="56.5" ry="53.5" fill="#FF7AFE"/>
<ellipse cx="508.5" cy="239.5" rx="56.5" ry="53.5" fill="#FF7AFE"/>
<ellipse cx="487.5" cy="535.5" rx="56.5" ry="53.5" fill="#FF7AFE"/>
</svg>
